<svg width="40" height="40" viewBox="0 0 40 28" fill="none" xmlns="http://www.w3.org/2000/svg">
<path d="M20 8.4C18.5534 8.4 17.166 8.99 16.1431 10.0402C15.1201 11.0904 14.5455 12.5148 14.5455 14C14.5455 15.4852 15.1201 16.9096 16.1431 17.9598C17.166 19.01 18.5534 19.6 20 19.6C21.4466 19.6 22.834 19.01 23.8569 17.9598C24.8799 16.9096 25.4545 15.4852 25.4545 14C25.4545 12.5148 24.8799 11.0904 23.8569 10.0402C22.834 8.99 21.4466 8.4 20 8.4ZM20 23.3333C17.5889 23.3333 15.2766 22.35 13.5718 20.5997C11.8669 18.8493 10.9091 16.4754 10.9091 14C10.9091 11.5246 11.8669 9.15068 13.5718 7.40034C15.2766 5.65 17.5889 4.66667 20 4.66667C22.4111 4.66667 24.7234 5.65 26.4282 7.40034C28.1331 9.15068 29.0909 11.5246 29.0909 14C29.0909 16.4754 28.1331 18.8493 26.4282 20.5997C24.7234 22.35 22.4111 23.3333 20 23.3333ZM20 0C10.9091 0 3.14545 5.80533 0 14C3.14545 22.1947 10.9091 28 20 28C29.0909 28 36.8545 22.1947 40 14C36.8545 5.80533 29.0909 0 20 0Z" fill="#0C6AF7"/>
</svg>
