<svg width="72" height="70" viewBox="0 0 72 70" fill="none" xmlns="http://www.w3.org/2000/svg">
<path d="M36 0C31.2724 0 26.5911 0.927778 22.2234 2.73036C17.8557 4.53294 13.8871 7.17503 10.5442 10.5058C3.79285 17.2325 0 26.3559 0 35.8689C0 51.723 10.332 65.1739 24.624 69.9444C26.424 70.2314 27 69.1195 27 68.151V62.0891C17.028 64.2413 14.904 57.2827 14.904 57.2827C13.248 53.1219 10.908 52.01 10.908 52.01C7.632 49.7861 11.16 49.8578 11.16 49.8578C14.76 50.1089 16.668 53.5523 16.668 53.5523C19.8 59.0044 25.092 57.3903 27.144 56.5295C27.468 54.198 28.404 52.6197 29.412 51.723C21.42 50.8263 13.032 47.7416 13.032 34.0755C13.032 30.094 14.4 26.9017 16.74 24.355C16.38 23.4583 15.12 19.7279 17.1 14.8856C17.1 14.8856 20.124 13.9172 27 18.5442C29.844 17.7551 32.94 17.3606 36 17.3606C39.06 17.3606 42.156 17.7551 45 18.5442C51.876 13.9172 54.9 14.8856 54.9 14.8856C56.88 19.7279 55.62 23.4583 55.26 24.355C57.6 26.9017 58.968 30.094 58.968 34.0755C58.968 47.7774 50.544 50.7904 42.516 51.6871C43.812 52.7991 45 54.9871 45 58.3229V68.151C45 69.1195 45.576 70.2673 47.412 69.9444C61.704 65.138 72 51.723 72 35.8689C72 31.1586 71.0688 26.4943 69.2597 22.1425C67.4505 17.7907 64.7988 13.8365 61.4558 10.5058C58.1129 7.17503 54.1443 4.53294 49.7766 2.73036C45.4089 0.927778 40.7276 0 36 0Z" fill="white"/>
</svg>
