<svg width="38" height="38" viewBox="0 0 38 38" fill="none" xmlns="http://www.w3.org/2000/svg">
<path d="M37.0401 9.58851L28.4107 0.959941C28.1065 0.655611 27.7453 0.414195 27.3479 0.249486C26.9504 0.0847761 26.5243 0 26.094 0C25.6638 0 25.2377 0.0847761 24.8402 0.249486C24.4427 0.414195 24.0816 0.655611 23.7774 0.959941L0.959858 23.7778C0.655554 24.082 0.414159 24.4432 0.249464 24.8407C0.0847688 25.2383 0 25.6644 0 26.0947C0 26.525 0.0847688 26.951 0.249464 27.3486C0.414159 27.7461 0.655554 28.1073 0.959858 28.4115L9.58932 37.0401C9.8935 37.3444 10.2547 37.5858 10.6521 37.7505C11.0496 37.9152 11.4757 38 11.906 38C12.3362 38 12.7623 37.9152 13.1598 37.7505C13.5573 37.5858 13.9184 37.3444 14.2226 37.0401L37.0401 14.2222C37.3444 13.918 37.5858 13.5568 37.7505 13.1593C37.9152 12.7617 38 12.3356 38 11.9053C38 11.475 37.9152 11.049 37.7505 10.6514C37.5858 10.2539 37.3444 9.89271 37.0401 9.58851ZM11.9051 33.797L4.20758 26.0987L8.51821 21.7845L12.3703 25.6369C12.7395 26.0061 13.2402 26.2135 13.7624 26.2135C14.2845 26.2135 14.7853 26.0061 15.1545 25.6369C15.5237 25.2676 15.7311 24.7668 15.7311 24.2446C15.7311 23.7224 15.5237 23.2216 15.1545 22.8524L11.3024 19L13.7591 16.5431L17.6095 20.3955C17.9787 20.7648 18.4795 20.9722 19.0016 20.9722C19.5238 20.9722 20.0245 20.7648 20.3937 20.3955C20.763 20.0263 20.9704 19.5255 20.9704 19.0033C20.9704 18.4811 20.763 17.9803 20.3937 17.611L16.5433 13.7587L19 11.3018L22.8521 15.1542C23.2213 15.5234 23.722 15.7308 24.2442 15.7308C24.7663 15.7308 25.2671 15.5234 25.6363 15.1542C26.0055 14.7849 26.2129 14.2841 26.2129 13.7619C26.2129 13.2397 26.0055 12.7389 25.6363 12.3697L21.7842 8.51731L26.0998 4.20302L33.7973 11.9013L11.9051 33.797Z" fill="#0C6AF7"/>
</svg>
