<svg width="284" height="64" viewBox="0 0 284 64" fill="none" xmlns="http://www.w3.org/2000/svg">
<path d="M89.6039 0.682761H91.192L99.1322 19.6512H97.1404L94.6641 13.7202H86.0779L83.6285 19.6512H81.6098L89.6039 0.682761ZM94.2335 12.2508L90.3845 2.87348L86.4816 12.2508H94.2335ZM101.576 0.148438H103.406V16.4987C103.406 17.1933 103.532 17.6475 103.783 17.8612C104.034 18.075 104.339 18.1818 104.698 18.1818C105.021 18.1818 105.344 18.1462 105.667 18.075C105.99 18.0037 106.268 17.9325 106.501 17.8612L106.824 19.3306C106.483 19.4731 106.062 19.5889 105.559 19.6779C105.075 19.767 104.653 19.8115 104.294 19.8115C103.469 19.8115 102.805 19.5711 102.302 19.0902C101.818 18.6093 101.576 17.9503 101.576 17.1132V0.148438ZM114.885 19.9184C113.88 19.9184 112.947 19.7314 112.085 19.3573C111.224 18.9655 110.479 18.4401 109.851 17.7811C109.223 17.1043 108.73 16.3295 108.371 15.4568C108.03 14.5841 107.86 13.649 107.86 12.6516C107.86 11.3514 108.156 10.1581 108.748 9.07163C109.358 7.98517 110.192 7.12135 111.251 6.48016C112.31 5.82116 113.512 5.49166 114.858 5.49166C116.24 5.49166 117.442 5.82116 118.465 6.48016C119.505 7.13916 120.322 8.01189 120.914 9.09834C121.506 10.167 121.802 11.3425 121.802 12.6249C121.802 12.7674 121.802 12.9098 121.802 13.0523C121.802 13.177 121.793 13.275 121.775 13.3462H109.771C109.86 14.3436 110.139 15.2341 110.605 16.0178C111.09 16.7837 111.709 17.3982 112.462 17.8612C113.234 18.3065 114.068 18.5291 114.966 18.5291C115.881 18.5291 116.742 18.2976 117.549 17.8345C118.375 17.3714 118.949 16.7659 119.272 16.0178L120.86 16.4453C120.573 17.1043 120.133 17.7009 119.541 18.2353C118.949 18.7696 118.249 19.1881 117.442 19.4909C116.652 19.7759 115.8 19.9184 114.885 19.9184ZM109.717 12.0371H120.08C120.008 11.0219 119.73 10.1314 119.245 9.3655C118.779 8.59964 118.16 8.00298 117.388 7.57552C116.634 7.13025 115.8 6.90762 114.885 6.90762C113.97 6.90762 113.135 7.13025 112.382 7.57552C111.628 8.00298 111.009 8.60855 110.524 9.39222C110.058 10.1581 109.789 11.0397 109.717 12.0371ZM122.527 24.4868C121.934 24.4868 121.378 24.4067 120.858 24.2464C120.319 24.0861 119.853 23.8189 119.458 23.4449L120.346 22.216C120.616 22.4653 120.93 22.6345 121.288 22.7236C121.629 22.8126 121.97 22.8572 122.311 22.8572C122.742 22.8572 123.146 22.7503 123.522 22.5366C123.899 22.3228 124.204 22.0201 124.438 21.6282C124.689 21.2542 124.814 20.8356 124.814 20.3726V5.73211H126.645V20.2657C126.645 21.085 126.447 21.8152 126.053 22.4564C125.658 23.0976 125.146 23.5963 124.518 23.9525C123.89 24.3087 123.226 24.4868 122.527 24.4868ZM124.814 2.82005V0.148438H126.645V2.82005H124.814ZM129.541 15.6438C129.541 14.7711 129.792 14.023 130.295 13.3996C130.797 12.7585 131.488 12.2687 132.367 11.9303C133.265 11.574 134.296 11.3959 135.463 11.3959C136.145 11.3959 136.853 11.4494 137.589 11.5562C138.325 11.6631 138.98 11.8234 139.554 12.0371V10.8616C139.554 9.6861 139.204 8.75103 138.504 8.05641C137.804 7.36179 136.835 7.01448 135.597 7.01448C134.844 7.01448 134.099 7.15697 133.363 7.44194C132.646 7.7091 131.892 8.10985 131.102 8.64417L130.403 7.3618C131.318 6.73842 132.215 6.27534 133.094 5.97256C133.973 5.65196 134.871 5.49166 135.786 5.49166C137.508 5.49166 138.872 5.98146 139.877 6.96105C140.882 7.94064 141.384 9.29426 141.384 11.0219V17.4605C141.384 17.7098 141.438 17.8969 141.546 18.0215C141.653 18.1284 141.824 18.1907 142.057 18.2085V19.6512C141.86 19.669 141.689 19.6868 141.546 19.7046C141.402 19.7225 141.295 19.7225 141.223 19.7046C140.774 19.6868 140.433 19.5444 140.2 19.2772C139.967 19.01 139.841 18.7251 139.823 18.4223L139.796 17.4071C139.168 18.2085 138.352 18.8319 137.347 19.2772C136.342 19.7047 135.319 19.9184 134.278 19.9184C133.381 19.9184 132.565 19.7314 131.829 19.3573C131.111 18.9655 130.546 18.449 130.133 17.8078C129.739 17.1488 129.541 16.4275 129.541 15.6438ZM138.935 16.7124C139.132 16.4631 139.285 16.2226 139.393 15.9911C139.5 15.7596 139.554 15.5547 139.554 15.3766V13.3462C138.944 13.1147 138.307 12.9366 137.643 12.8119C136.997 12.6872 136.342 12.6249 135.678 12.6249C134.368 12.6249 133.309 12.8831 132.502 13.3996C131.695 13.9162 131.291 14.6197 131.291 15.5102C131.291 16.0267 131.425 16.5165 131.695 16.9796C131.964 17.4249 132.358 17.7989 132.879 18.1017C133.399 18.3867 134.009 18.5291 134.709 18.5291C135.588 18.5291 136.405 18.3599 137.158 18.0215C137.93 17.6831 138.522 17.2468 138.935 16.7124ZM157.128 19.6512H155.297V11.8768C155.297 10.2382 155.055 9.04491 154.571 8.29686C154.086 7.53099 153.323 7.14807 152.283 7.14807C151.565 7.14807 150.856 7.32617 150.156 7.68239C149.456 8.02079 148.837 8.49278 148.299 9.09834C147.779 9.6861 147.402 10.3629 147.169 11.1288V19.6512H145.339V5.73211H147.007V8.88461C147.384 8.2078 147.877 7.62005 148.488 7.12135C149.098 6.60483 149.788 6.2041 150.56 5.91912C151.332 5.63415 152.13 5.49166 152.956 5.49166C153.727 5.49166 154.382 5.63415 154.92 5.91912C155.459 6.2041 155.889 6.61374 156.212 7.14807C156.535 7.66458 156.769 8.29686 156.912 9.04491C157.056 9.77515 157.128 10.5944 157.128 11.5028V19.6512ZM160.09 12.7317C160.09 11.4137 160.359 10.2115 160.897 9.12506C161.454 8.02079 162.216 7.13916 163.185 6.48016C164.154 5.82116 165.258 5.49166 166.496 5.49166C167.662 5.49166 168.703 5.80335 169.618 6.42673C170.551 7.0323 171.278 7.77144 171.798 8.64417V0.148438H173.629V17.4605C173.629 17.7098 173.683 17.8969 173.79 18.0215C173.898 18.1284 174.059 18.1907 174.275 18.2085V19.6512C173.916 19.7047 173.638 19.7225 173.44 19.7046C173.063 19.6868 172.731 19.5354 172.444 19.2505C172.157 18.9655 172.014 18.6538 172.014 18.3154V16.9529C171.457 17.8612 170.704 18.5826 169.753 19.1169C168.802 19.6512 167.815 19.9184 166.792 19.9184C165.823 19.9184 164.926 19.7225 164.1 19.3306C163.293 18.9388 162.584 18.4045 161.974 17.7277C161.382 17.0508 160.915 16.285 160.574 15.4301C160.251 14.5573 160.09 13.6579 160.09 12.7317ZM171.798 14.869V10.5677C171.565 9.92655 171.188 9.34769 170.668 8.83118C170.148 8.29686 169.555 7.8783 168.891 7.57552C168.245 7.25493 167.599 7.09463 166.953 7.09463C166.2 7.09463 165.518 7.25493 164.908 7.57552C164.298 7.8783 163.768 8.29686 163.32 8.83118C162.889 9.3655 162.557 9.97107 162.324 10.6479C162.091 11.3247 161.974 12.0193 161.974 12.7317C161.974 13.4798 162.1 14.1922 162.351 14.869C162.62 15.5458 162.997 16.1514 163.481 16.6857C163.966 17.2022 164.522 17.603 165.15 17.888C165.778 18.1729 166.46 18.3154 167.196 18.3154C167.662 18.3154 168.147 18.2264 168.649 18.0482C169.152 17.8701 169.627 17.6297 170.076 17.3269C170.542 17.0063 170.928 16.6323 171.233 16.2048C171.538 15.7774 171.727 15.3321 171.798 14.869ZM184.773 7.33508C183.553 7.3707 182.477 7.70911 181.544 8.35029C180.628 8.99148 179.982 9.87311 179.606 10.9952V19.6512H177.775V5.73211H179.498V9.07163C179.982 8.09204 180.619 7.29946 181.409 6.69389C182.216 6.08833 183.069 5.74992 183.966 5.67868C184.145 5.66086 184.298 5.65196 184.424 5.65196C184.567 5.65196 184.684 5.66086 184.773 5.67868V7.33508ZM192.741 19.9184C191.736 19.9184 190.803 19.7314 189.941 19.3573C189.098 18.9655 188.362 18.4401 187.734 17.7811C187.124 17.1043 186.649 16.3384 186.308 15.4835C185.967 14.6108 185.796 13.6935 185.796 12.7317C185.796 11.7343 185.967 10.8082 186.308 9.95326C186.649 9.08053 187.133 8.31467 187.761 7.65567C188.389 6.97886 189.125 6.45344 189.968 6.07942C190.83 5.68758 191.763 5.49166 192.768 5.49166C193.772 5.49166 194.697 5.68758 195.54 6.07942C196.383 6.45344 197.119 6.97886 197.747 7.65567C198.375 8.31467 198.86 9.08053 199.201 9.95326C199.541 10.8082 199.712 11.7343 199.712 12.7317C199.712 13.6935 199.541 14.6108 199.201 15.4835C198.86 16.3384 198.375 17.1043 197.747 17.7811C197.137 18.4401 196.401 18.9655 195.54 19.3573C194.697 19.7314 193.763 19.9184 192.741 19.9184ZM187.654 12.7585C187.654 13.7915 187.878 14.7354 188.326 15.5904C188.793 16.4275 189.412 17.0954 190.184 17.5941C190.955 18.075 191.808 18.3154 192.741 18.3154C193.674 18.3154 194.526 18.0661 195.298 17.5674C196.069 17.0687 196.688 16.3918 197.155 15.5369C197.621 14.6642 197.855 13.7202 197.855 12.705C197.855 11.672 197.621 10.728 197.155 9.87311C196.688 9.01819 196.069 8.34138 195.298 7.84268C194.526 7.34398 193.674 7.09463 192.741 7.09463C191.808 7.09463 190.955 7.35289 190.184 7.8694C189.43 8.38591 188.82 9.07163 188.353 9.92655C187.887 10.7637 187.654 11.7076 187.654 12.7585Z" fill="white"/>
<path d="M68.8218 33.1252C70.8807 33.1252 72.7207 33.5673 74.3417 34.4515C75.9771 35.3211 77.2549 36.5386 78.1748 38.104C79.0949 39.6549 79.5549 41.4088 79.5549 43.3655C79.5549 45.4528 79.1023 47.2935 78.1968 48.8878C77.2914 50.4824 76.0283 51.7215 74.4073 52.6057C72.801 53.4755 70.9683 53.9102 68.9094 53.9102H62.8637V62.6939H55.92V33.1252H68.8218ZM68.5369 47.8008C69.2817 47.8008 69.9608 47.6052 70.574 47.2138C71.2021 46.8224 71.6985 46.2862 72.0635 45.6049C72.4287 44.9236 72.6111 44.1772 72.6111 43.3655C72.6111 42.6844 72.4287 42.0248 72.0635 41.387C71.6985 40.7492 71.2021 40.2348 70.574 39.8434C69.9461 39.452 69.2671 39.2564 68.5369 39.2564H62.8637V47.8008H68.5369ZM100.999 62.6939L99.0718 57.889H86.6519L84.7243 62.6939H77.3864L89.609 33.1035H96.1146L108.337 62.6939H100.999ZM88.93 52.171H96.7937L93.0918 42.9308L92.8947 42.0175H92.8291L92.6318 42.9308L88.93 52.171ZM111.514 33.1252H118.457V56.5627H130.965V62.6939H111.514V33.1252ZM134.907 33.1252H141.019L150.285 45.8441V45.8223L159.682 33.1252H165.727V62.6939H158.805V44.1048L151.161 54.7365H149.409L141.851 44.0395V62.6939H134.907V33.1252ZM192.516 62.6939L190.589 57.889H178.169L176.241 62.6939H168.903L181.126 33.1035H187.631L199.854 62.6939H192.516ZM180.446 52.171H188.31L184.609 42.9308L184.412 42.0175H184.346L184.148 42.9308L180.446 52.171ZM216.107 33.1252C218.181 33.1252 220.035 33.5455 221.671 34.3862C223.307 35.2269 224.577 36.401 225.483 37.9084C226.402 39.4158 226.863 41.1406 226.863 43.0829C226.863 45.0686 226.351 46.8224 225.329 48.3443C224.321 49.8519 222.948 50.9751 221.211 51.7143L227.563 62.6939H219.612L214.399 52.8015H213.062H209.975V62.6939H203.03V33.1252H216.107ZM215.823 47.0398C216.582 47.0398 217.275 46.8732 217.903 46.5398C218.531 46.1919 219.02 45.721 219.371 45.1267C219.736 44.5178 219.919 43.8366 219.919 43.0829C219.919 42.4016 219.736 41.7711 219.371 41.1914C219.006 40.5971 218.51 40.126 217.882 39.7781C217.254 39.4303 216.567 39.2564 215.823 39.2564H209.975V47.0398H215.823Z" fill="white"/>
<path d="M0 29.9221L50.1239 0V8.6679L11.8431 31.9406L50.1239 55.0946V64L0 34.3154V29.9221Z" fill="#0C6AF7"/>
<path d="M283.038 34.3154L232.915 64V55.0946L271.195 31.9406L232.915 8.6679V0L283.038 29.9221V34.3154Z" fill="#0C6AF7"/>
</svg>
