<svg width="34" height="38" viewBox="0 0 34 38" fill="none" xmlns="http://www.w3.org/2000/svg">
<path d="M17.0003 8.44444C17.6026 8.44444 18.1079 8.24178 18.516 7.83644C18.9242 7.43111 19.1275 6.93007 19.1261 6.33333C19.1261 5.73518 18.922 5.23344 18.5139 4.82811C18.1057 4.42278 17.6012 4.22081 17.0003 4.22222C16.398 4.22222 15.8928 4.42489 15.4847 4.83022C15.0765 5.23556 14.8731 5.73659 14.8746 6.33333C14.8746 6.93148 15.0786 7.43322 15.4868 7.83855C15.8949 8.24389 16.3995 8.44585 17.0003 8.44444ZM23.0057 8.44444H26.7258C27.7887 8.44444 28.7098 8.7963 29.4893 9.5C30.2687 10.2037 30.747 11.0657 30.9242 12.0861L33.9534 33.1972C34.1306 34.4639 33.8025 35.5814 32.9692 36.5497C32.1359 37.518 31.0645 38.0014 29.755 38H4.24568C2.93478 38 1.86268 37.5159 1.02938 36.5476C0.196072 35.5793 -0.131298 34.4625 0.0472673 33.1972L3.0765 12.0861C3.25365 11.0657 3.73195 10.2037 4.5114 9.5C5.29085 8.7963 6.21202 8.44444 7.27491 8.44444H10.995C10.8887 8.09259 10.8002 7.74989 10.7293 7.41633C10.6584 7.08278 10.623 6.72178 10.623 6.33333C10.623 4.57407 11.243 3.0787 12.4831 1.84722C13.7231 0.615741 15.2289 0 17.0003 0C18.7718 0 20.2776 0.615741 21.5176 1.84722C22.7577 3.0787 23.3777 4.57407 23.3777 6.33333C23.3777 6.72037 23.3422 7.08137 23.2714 7.41633C23.2005 7.7513 23.1119 8.094 23.0057 8.44444Z" fill="#0C6AF7"/>
</svg>
