<svg width="28" height="28" viewBox="0 0 28 28" fill="none" xmlns="http://www.w3.org/2000/svg">
<path d="M14 0C10.287 0 6.72601 1.475 4.1005 4.1005C1.475 6.72601 0 10.287 0 14V23.3333C0 24.571 0.491665 25.758 1.36684 26.6332C2.242 27.5083 3.42899 28 4.66667 28H6.81644C7.39432 28 7.96078 27.839 8.45231 27.5351C8.94384 27.2313 9.34102 26.7965 9.59933 26.2796L9.87156 25.7351C9.36843 25.3839 8.8978 24.9882 8.46533 24.5529C6.75578 22.8324 5.44444 20.3062 5.44444 17.1111C5.44444 15.9678 5.63733 14.8307 5.98733 13.7558C6.14289 13.2782 6.57378 13.2222 7 13.2222C9.62889 13.2222 11.9544 11.9171 13.3638 9.91667C13.4355 9.8146 13.5308 9.7313 13.6416 9.6738C13.7523 9.6163 13.8752 9.58628 14 9.58628C14.1248 9.58628 14.2477 9.6163 14.3584 9.6738C14.4692 9.7313 14.5645 9.8146 14.6362 9.91667C15.3533 10.9385 16.306 11.7724 17.4138 12.3478C18.5216 12.9233 19.7517 13.2232 21 13.2222C21.4262 13.2222 21.8587 13.2782 22.0127 13.7558C22.3682 14.8389 22.5513 15.9711 22.5556 17.1111C22.5556 20.3078 21.2442 22.8324 19.5347 24.5529C19.0913 24.9993 18.6169 25.3944 18.1284 25.7351L18.4007 26.2796C18.659 26.7965 19.0562 27.2313 19.5477 27.5351C20.0392 27.839 20.6057 28 21.1836 28H23.3333C24.571 28 25.758 27.5083 26.6332 26.6332C27.5083 25.758 28 24.571 28 23.3333V14C28 10.287 26.525 6.72601 23.8995 4.1005C21.274 1.475 17.713 0 14 0Z" fill="#0C6AF7"/>
</svg>
