<svg width="54" height="68" viewBox="0 0 54 68" fill="none" xmlns="http://www.w3.org/2000/svg">
<path d="M30.1 8.45C29.7333 9.61667 29.3667 10.75 29 11.85C28.6333 12.9167 28.2667 14 27.9 15.1C27.6667 15.7667 27.4167 16.1667 27.15 16.3C26.8833 16.4333 26.4167 16.4167 25.75 16.25C24.7833 15.9833 23.8167 15.75 22.85 15.55C21.8833 15.3167 20.9167 15.1167 19.95 14.95C19.6167 14.8833 19.2667 14.9 18.9 15C18.5667 15.0667 18.2667 15.1833 18 15.35C17.3667 15.75 17.05 16.2 17.05 16.7C17.05 17.1667 17.35 17.6 17.95 18C18.4167 18.3333 18.95 18.6 19.55 18.8C20.4167 19.3 21.3333 19.7667 22.3 20.2C23.2667 20.6333 24.1833 21.1333 25.05 21.7C26.0167 22.3667 26.8167 23.0833 27.45 23.85C28.1167 24.6167 28.6667 25.4333 29.1 26.3C29.9 27.9333 30.3 29.7167 30.3 31.65C30.3 33.5833 29.9667 35.4333 29.3 37.2C28.6333 38.9333 27.6667 40.5 26.4 41.9C25.1333 43.2667 23.6333 44.2167 21.9 44.75C19.9 45.3833 17.8167 45.65 15.65 45.55C12.7167 45.3833 10.0667 44.85 7.7 43.95C5.36667 43.0167 3.23333 41.55 1.3 39.55C0.833333 39.0833 0.633333 38.4833 0.7 37.75C0.766667 37.0167 0.95 36.3667 1.25 35.8C2.05 34.2667 2.8 32.9 3.5 31.7C4.23333 30.4667 4.93333 29.5167 5.6 28.85C6.13333 28.3167 6.53333 28.0667 6.8 28.1C7.06667 28.1 7.51667 28.3333 8.15 28.8C8.78333 29.2667 9.35 29.7 9.85 30.1C10.3833 30.4667 10.9 30.8333 11.4 31.2C11.9 31.5333 12.4167 31.85 12.95 32.15C13.4833 32.4167 14.0833 32.65 14.75 32.85C15.35 33.05 15.8333 33.0833 16.2 32.95C16.5667 32.7833 16.75 32.5 16.75 32.1C16.75 31.7 16.5333 31.2 16.1 30.6C15.6667 30 14.9833 29.3333 14.05 28.6C13.05 27.8333 12 27.15 10.9 26.55C9.8 25.9167 8.73333 25.2167 7.7 24.45C7.1 23.9833 6.53333 23.5167 6 23.05C5.46667 22.55 4.95 22.0167 4.45 21.45C3.38333 20.1833 2.65 18.85 2.25 17.45C1.88333 16.0167 1.78333 14.6 1.95 13.2C2.11667 11.8 2.51667 10.4833 3.15 9.25C3.81667 7.98333 4.65 6.86666 5.65 5.9C6.65 4.96666 7.78333 4.25 9.05 3.75C10.35 3.21667 11.7 2.86667 13.1 2.7C14.5333 2.5 16 2.43333 17.5 2.5C19.0333 2.53333 20.5333 2.66666 22 2.9C23.4667 3.1 24.8667 3.35 26.2 3.65C27.5667 3.95 28.8167 4.23333 29.95 4.5C30.35 4.66666 30.6 4.91666 30.7 5.25C30.8 5.55 30.8167 5.9 30.75 6.3C30.7167 6.66667 30.6167 7.05 30.45 7.45C30.3167 7.81667 30.2 8.15 30.1 8.45Z" fill="#F7283B"/>
<path d="M31.25 54.75C31.0833 55.7167 30.95 56.6167 30.85 57.45C30.75 58.25 30.6167 59.0833 30.45 59.95C30.3833 60.3167 30.3167 60.65 30.25 60.95C30.1833 61.25 30.0667 61.5333 29.9 61.8C29.6 62.6333 28.9333 63.05 27.9 63.05C25.9667 63.0167 24.0333 63 22.1 63C20.2 63 18.3 63 16.4 63C15.7 63 15.15 62.8333 14.75 62.5C14.35 62.1667 14.15 61.6667 14.15 61C14.15 60.2 14.1833 59.4167 14.25 58.65C14.3167 57.8833 14.4333 57.1333 14.6 56.4C15.5 52.0667 16.4 47.8 17.3 43.6C18.2333 39.3667 19.1667 35.1333 20.1 30.9C20.3667 29.7 20.6833 28.55 21.05 27.45C21.45 26.3167 21.8333 25.1833 22.2 24.05C22.6333 22.7833 23.2 21.9167 23.9 21.45C24.6333 20.95 25.6667 20.7 27 20.7C29.2 20.7 31.3833 20.7167 33.55 20.75C35.7167 20.75 37.8833 20.7167 40.05 20.65C41.05 20.6167 41.8333 20.8167 42.4 21.25C43 21.6833 43.4833 22.2833 43.85 23.05C44.0167 23.35 44.1333 23.6667 44.2 24C44.3 24.3333 44.4 24.6833 44.5 25.05C45.1667 27.7167 45.8 30.3667 46.4 33C47.0333 35.6 47.65 38.2333 48.25 40.9C48.85 43.5 49.3833 46.0667 49.85 48.6C50.35 51.1 50.85 53.6167 51.35 56.15C51.4833 56.7833 51.6167 57.4 51.75 58C51.9167 58.5667 52.0833 59.1333 52.25 59.7C52.3167 59.9333 52.3667 60.1667 52.4 60.4C52.4333 60.6333 52.45 60.8667 52.45 61.1C52.4833 62.1667 52 62.7167 51 62.75H50.5C48.7667 62.7833 47.05 62.8333 45.35 62.9C43.65 62.9333 41.9167 62.9833 40.15 63.05C39.3167 63.0833 38.7167 62.9667 38.35 62.7C37.9833 62.4 37.7167 61.85 37.55 61.05C37.3833 60.25 37.25 59.4667 37.15 58.7C37.05 57.9333 36.95 57.1833 36.85 56.45C36.7833 56.0833 36.7333 55.7667 36.7 55.5C36.6667 55.2333 36.6167 54.9833 36.55 54.75H31.25ZM33.75 32.95C33.35 35.1167 32.9833 37.2667 32.65 39.4C32.35 41.5 32.1333 43.65 32 45.85H35.5C35.2 43.6167 34.9 41.45 34.6 39.35C34.3 37.2167 34.0167 35.0833 33.75 32.95Z" fill="white"/>
</svg>
